<svg xmlns="http://www.w3.org/2000/svg" xml:space="preserve" viewBox="0 0 64 64"><path fill="#FEDD55" d="M17.7 60c-1.7-.6-2.3-2.8-1.6-4.4l3.6-9c1.5-3.7 3-7.4 4.5-11 .3-.8.6-1.5 1-2.3.2-.5.2-1 .1-1.4-.2-.5-.4-.7-.9-.7h-2.1c-.1-.1 0-.3 0-.4.4-2 .9-3.9 1.6-5.8.1-.2.1-.5.3-.7.2-.1.4-.1.6-.1 1.9 0 3.8.1 5.7 0 1.4-.1 2.1.9 2.4 1.8.3.9.2 1.7-.1 2.6-.3.8-.6 1.6-.9 2.3-.6 1.4-1.1 2.8-1.7 4.2-.8 2-1.6 4-2.4 5.9-.8 2-1.6 3.9-2.4 5.9-1 2.4-1.9 4.8-2.9 7.3-.5 1.1-.9 2.3-1.4 3.5-.1.2-.2.4-.3.5-.6.7-1.2 1.3-2 1.7-.5.1-.8.1-1.1.1z"/><path fill="#FE93DD" d="M20.6 58.3c.9-2.3 1.8-4.6 2.7-6.8 1.3-3.1 2.5-6.3 3.8-9.4 1.6-4 3.3-8.1 4.9-12.1.3-.8.7-1.6.8-2.4.2-1.1-.4-2.5-1.4-3-.1-.1-.3-.1-.5-.1h-6.8c-.7.2-1.5.2-2.2 0 0-.3.2-.2.3-.2h1.4c.3 0 .4-.1.5-.4.6-1.6 1.3-3.2 2.2-4.7 1.4-2.2 3.2-4.1 5.6-5.3 1.8-.9 3.6-1.4 5.6-1.3.9.1 1.8.1 2.7 0 1.2-.1 2.4-.3 3.5-.8.3-.1.6-.3.9-.2-.9 2.2-1.8 4.3-2.7 6.5-.5 1.2-1 2.4-1.6 3.7-.1.3-.3.7-.3 1 0 .9.5 1.4 1.4 1.4h7.7c1.4 0 2.3.8 2.4 2.2.1.9.1 1.8-.6 2.5-.4.4-.7.8-1.1 1.2-.9.9-1.8 1.7-2.7 2.6-1.1 1-2.2 2.1-3.2 3.1-.7.7-1.4 1.4-2.2 2.1-.8.8-1.6 1.6-2.5 2.4-1.1 1-2.2 2.2-3.3 3.2-1 .9-1.9 1.9-2.9 2.8-1.5 1.5-3.1 3-4.6 4.5-1.4 1.3-2.7 2.7-4.1 4-1.3 1.2-2.5 2.5-3.8 3.7.3-.3.2-.3.1-.2z"/><path fill="#FE71D9" d="M44.9 11.5c-.3 0-.6.1-.8.2-.9.4-1.9.5-2.9.7-1.3.2-2.6.1-3.8.1-.8 0-1.6 0-2.4.2-1.4.4-2.8 1-4 1.9-1.1.8-2.1 1.7-3 2.8-1.3 1.5-2.2 3.2-2.9 5-.2.6-.5 1.1-.7 1.7-.1.2-.2.2-.4.2h-2c-.2.1-.3-.1-.4-.2-.2-.4-.2-.8-.1-1.2.4-.9.8-1.9 1.2-2.8.9-2.1 1.7-4.1 2.6-6.2l3.6-8.4c.2-.5.3-1 .7-1.5h13.6c1 0 1.8.5 2.3 1.3.9 1.3.9 2.7.3 4.2-.3.6-.6 1.3-.9 2z"/><path fill="#FECC00" d="M29.6 4c-.4 1-.8 2-1.2 2.9-.9 2.2-1.9 4.4-2.8 6.6-1.3 3.1-2.7 6.3-4 9.4-.2.6-.1 1.1.4 1.3.5.1 1.1 0 1.6.1h.6c-.8 2.1-1.3 4.2-1.8 6.4 0 .1-.1.2-.1.4-1.8 0-3.7.1-5.5 0-1.1 0-1.7-.8-2.2-1.7-.7-1.4-.5-2.8.2-4.3 1-2.3 1.9-4.5 2.9-6.8 1.6-3.7 3.1-7.3 4.7-11C22.9 6 23.8 5 25 4.4c.4-.2 1-.4 1.6-.4h3z"/></svg>
