<svg xmlns="http://www.w3.org/2000/svg" xml:space="preserve" viewBox="0 0 442 84"><path fill="#FEDD55" d="M16.9 74c-2-.7-2.6-3.1-1.8-5.1l4.2-10.2 5.1-12.6c.4-.9.7-1.8 1.1-2.7.2-.5.3-1.1.1-1.6-.2-.5-.5-.7-1.1-.8h-2.4c-.1-.1 0-.3 0-.5.5-2.2 1.1-4.4 1.8-6.6.1-.3.2-.5.4-.7.2-.1.5-.1.7-.1 2.2 0 4.3.1 6.5 0 1.5-.1 2.4 1 2.7 2.1.3 1 .2 2-.2 3-.4.9-.7 1.8-1.1 2.7-.7 1.6-1.3 3.2-2 4.8-.9 2.3-1.8 4.5-2.8 6.8-.9 2.2-1.8 4.5-2.7 6.7-1.1 2.8-2.2 5.5-3.4 8.3-.5 1.3-1 2.6-1.6 3.9-.1.2-.2.4-.4.6-.6.8-1.3 1.5-2.3 2h-.8z"/><path fill="#FE93DD" d="M20.2 72c1-2.6 2.1-5.2 3.1-7.8 1.4-3.6 2.9-7.2 4.3-10.7 1.9-4.6 3.7-9.2 5.6-13.8.4-.9.8-1.8 1-2.8.2-1.3-.5-2.9-1.6-3.5-.2-.1-.4-.1-.5-.1h-7.8c-.8.2-1.7.2-2.5 0 0-.3.2-.2.4-.2h1.6c.3 0 .5-.1.6-.4.7-1.9 1.4-3.7 2.5-5.4 1.6-2.5 3.7-4.6 6.4-6.1 2-1.1 4.1-1.6 6.4-1.5 1 .1 2.1.1 3.1 0 1.4-.2 2.7-.3 4-.9.3-.1.7-.4 1.1-.2-1 2.5-2.1 4.9-3.1 7.4L43 30.2c-.2.4-.3.8-.3 1.2 0 1 .6 1.5 1.5 1.5H53c1.6 0 2.6.9 2.8 2.5.1 1 .1 2-.6 2.8-.4.5-.8.9-1.3 1.3-1 1-2 2-3 2.9-1.2 1.2-2.5 2.3-3.7 3.5-.8.8-1.6 1.6-2.5 2.4-.9.9-1.9 1.8-2.8 2.7-1.3 1.2-2.5 2.5-3.8 3.7-1 1.2-2.1 2.3-3.2 3.3-1.8 1.7-3.5 3.4-5.3 5.1-1.6 1.5-3.1 3-4.7 4.5-1.5 1.4-2.9 2.8-4.4 4.2-.1.1-.2.2-.3.2z"/><path fill="#FE71D9" d="M47.9 18.6c-.3 0-.6.1-.9.3-1.1.5-2.2.6-3.3.8-1.5.3-2.9.1-4.4.1-.9 0-1.9 0-2.7.3-1.6.5-3.2 1.1-4.6 2.1-1.3.9-2.4 2-3.4 3.2C27 27.1 26 29 25.1 31c-.3.7-.6 1.3-.8 2-.1.3-.2.2-.4.2h-2.3c-.3.1-.4-.1-.5-.2-.2-.4-.3-.9-.1-1.3.5-1.1.9-2.1 1.3-3.2 1-2.3 2-4.7 3-7 1.4-3.2 2.7-6.4 4.1-9.6.3-.6.4-1.2.8-1.7h15.5c1.2 0 2 .5 2.6 1.4 1 1.5 1 3.1.3 4.8 0 .7-.4 1.4-.7 2.2z"/><path fill="#FECC00" d="M30.5 10.1c-.5 1.1-.9 2.2-1.4 3.3-1.1 2.5-2.1 5-3.2 7.6-1.5 3.6-3.1 7.2-4.6 10.7-.3.6-.1 1.2.4 1.5.6.1 1.2 0 1.9.1h.7c-.9 2.4-1.5 4.8-2.1 7.3 0 .1-.1.3-.1.4-2.1 0-4.2.1-6.3 0-1.2-.1-2-.9-2.5-2-.8-1.7-.5-3.2.2-4.9l3.3-7.8c1.8-4.2 3.6-8.4 5.4-12.5.6-1.4 1.6-2.6 3-3.3.6-.3 1.2-.5 1.9-.5 1.1.1 2.2.1 3.4.1z"/><path d="M65.7 52.1 70 44c3.6 2.1 7.4 3 11 3 2.8 0 4.3-.7 4.3-1.9 0-3.5-15.5-1.4-15.5-11.6 0-7.4 6.2-12.3 16.5-12.3 4.9 0 9.2 1 12.2 2.8l-4 8c-2.6-1.6-5.8-2.4-9-2.4s-4.8 1.1-4.8 2.2c0 3.6 15.6 1.3 15.6 11.4 0 7.3-6.3 12.2-16.5 12.2-5.7 0-10.9-1.4-14.1-3.3zM130.3 29.1l-5.1 25.5h-9.9l.5-2.6c-2.2 2.1-5 3-7.6 3-5.3 0-9.1-2.9-9.1-8.7 0-1 .1-2.1.3-3.2l2.8-14.1h10.5l-2.4 13c-.1.6-.2 1.1-.2 1.6 0 1.8.9 2.7 2.6 2.7 2.3 0 4-1.5 4.6-4.9l2.5-12.3h10.5zM161.8 40.5c0 8.4-6.3 14.7-13.6 14.7-3.1 0-5.7-.9-7.3-3.2l-2.4 11.8H128l6.9-34.6h9.9l-.5 2.3c1.9-1.8 4.2-2.8 6.9-2.8 5.2 0 10.6 4.2 10.6 11.8zm-10.7.5c0-2.4-1.4-4-3.8-4-2.8 0-4.6 2.3-4.6 5.8 0 2.4 1.4 4 3.8 4 2.7 0 4.6-2.3 4.6-5.8zM191.9 44.4H174c.5 2.1 2.1 3 4.9 3 1.9 0 3.9-.6 5.6-1.8l4.4 6.4c-3.5 2.4-7.3 3.2-11.2 3.2-8.4 0-14-4.6-14-11.8 0-8.4 6.3-14.7 15.8-14.7 8.2 0 13 4.7 13 11.2 0 1.6-.3 3.1-.6 4.5zm-17.5-5.1h8.4c0-2.1-1.5-3.4-3.8-3.4-2.4 0-3.9 1.4-4.6 3.4zM216.2 28.7l-1.9 9.3c-.9-.1-1.5-.2-2.3-.2-3.5 0-5.6 1.4-6.4 5l-2.4 11.8h-10.5l5.1-25.5h9.9l-.5 2.6c2.3-2.1 5.4-3 9-3zM249.1 22v32.7H240l-12.4-14.8v14.8h-10.7V22h9.1l12.4 14.8V22h10.7zM253.1 38.3c0-9.9 7.8-17.1 18.4-17.1 10.6 0 18.4 7.2 18.4 17.1s-7.8 17.1-18.4 17.1c-10.6 0-18.4-7.2-18.4-17.1zm25.8 0c0-5.1-3.3-8.2-7.3-8.2-4.1 0-7.3 3.1-7.3 8.2s3.3 8.2 7.3 8.2 7.3-3.1 7.3-8.2zM300.6 30.5H291V22h30.2v8.5h-9.6v24.1h-11V30.5zM344.7 49h-12.4l-2.2 5.7h-11.2L333.2 22H344l14.3 32.7h-11.4l-2.2-5.7zm-3-8-3.2-8.2-3.2 8.2h6.4zM389.2 54.7l-.1-14.9-7.1 11.9h-4.9L370 40.3v14.4h-10V22h9.1l10.6 17.4L390.1 22h9.1l.1 32.7h-10.1zM402.5 52.1l3.5-8c3.1 1.8 7.2 3 10.8 3 3.1 0 4.2-.7 4.2-1.8 0-4.1-18.1-.8-18.1-13 0-6.1 5.1-11 15.2-11 4.4 0 8.9.9 12.3 2.8l-3.3 8c-3.2-1.6-6.3-2.4-9.1-2.4-3.2 0-4.2.9-4.2 2.1 0 3.9 18.1.7 18.1 12.7 0 6-5.1 11-15.2 11-5.4-.1-10.9-1.4-14.2-3.4z"/><linearGradient id="a" x1="302.15" x2="198.812" y1="-50.054" y2="128.931" gradientUnits="userSpaceOnUse"><stop offset="0" style="stop-color:#474596"/><stop offset=".17" style="stop-color:#464494"/><stop offset=".761" style="stop-color:#2b2a69"/></linearGradient><path fill="url(#a)" d="M65.7 52.1 70 44c3.6 2.1 7.4 3 11 3 2.8 0 4.3-.7 4.3-1.9 0-3.5-15.5-1.4-15.5-11.6 0-7.4 6.2-12.3 16.5-12.3 4.9 0 9.2 1 12.2 2.8l-4 8c-2.6-1.6-5.8-2.4-9-2.4s-4.8 1.1-4.8 2.2c0 3.6 15.6 1.3 15.6 11.4 0 7.3-6.3 12.2-16.5 12.2-5.7 0-10.9-1.4-14.1-3.3z"/><linearGradient id="b" x1="302.15" x2="198.812" y1="-50.054" y2="128.931" gradientUnits="userSpaceOnUse"><stop offset="0" style="stop-color:#474596"/><stop offset=".17" style="stop-color:#464494"/><stop offset=".761" style="stop-color:#2b2a69"/></linearGradient><path fill="url(#b)" d="m130.3 29.1-5.1 25.5h-9.9l.5-2.6c-2.2 2.1-5 3-7.6 3-5.3 0-9.1-2.9-9.1-8.7 0-1 .1-2.1.3-3.2l2.8-14.1h10.5l-2.4 13c-.1.6-.2 1.1-.2 1.6 0 1.8.9 2.7 2.6 2.7 2.3 0 4-1.5 4.6-4.9l2.5-12.3h10.5z"/><linearGradient id="c" x1="302.15" x2="198.812" y1="-50.054" y2="128.931" gradientUnits="userSpaceOnUse"><stop offset="0" style="stop-color:#474596"/><stop offset=".17" style="stop-color:#464494"/><stop offset=".761" style="stop-color:#2b2a69"/></linearGradient><path fill="url(#c)" d="M161.8 40.5c0 8.4-6.3 14.7-13.6 14.7-3.1 0-5.7-.9-7.3-3.2l-2.4 11.8H128l6.9-34.6h9.9l-.5 2.3c1.9-1.8 4.2-2.8 6.9-2.8 5.2 0 10.6 4.2 10.6 11.8zm-10.7.5c0-2.4-1.4-4-3.8-4-2.8 0-4.6 2.3-4.6 5.8 0 2.4 1.4 4 3.8 4 2.7 0 4.6-2.3 4.6-5.8z"/><linearGradient id="d" x1="302.15" x2="198.812" y1="-50.054" y2="128.931" gradientUnits="userSpaceOnUse"><stop offset="0" style="stop-color:#474596"/><stop offset=".17" style="stop-color:#464494"/><stop offset=".761" style="stop-color:#2b2a69"/></linearGradient><path fill="url(#d)" d="M191.9 44.4H174c.5 2.1 2.1 3 4.9 3 1.9 0 3.9-.6 5.6-1.8l4.4 6.4c-3.5 2.4-7.3 3.2-11.2 3.2-8.4 0-14-4.6-14-11.8 0-8.4 6.3-14.7 15.8-14.7 8.2 0 13 4.7 13 11.2 0 1.6-.3 3.1-.6 4.5zm-17.5-5.1h8.4c0-2.1-1.5-3.4-3.8-3.4-2.4 0-3.9 1.4-4.6 3.4z"/><linearGradient id="e" x1="302.15" x2="198.812" y1="-50.054" y2="128.931" gradientUnits="userSpaceOnUse"><stop offset="0" style="stop-color:#474596"/><stop offset=".17" style="stop-color:#464494"/><stop offset=".761" style="stop-color:#2b2a69"/></linearGradient><path fill="url(#e)" d="m216.2 28.7-1.9 9.3c-.9-.1-1.5-.2-2.3-.2-3.5 0-5.6 1.4-6.4 5l-2.4 11.8h-10.5l5.1-25.5h9.9l-.5 2.6c2.3-2.1 5.4-3 9-3z"/><linearGradient id="f" x1="302.15" x2="198.812" y1="-50.054" y2="128.931" gradientUnits="userSpaceOnUse"><stop offset="0" style="stop-color:#474596"/><stop offset=".17" style="stop-color:#464494"/><stop offset=".761" style="stop-color:#2b2a69"/></linearGradient><path fill="url(#f)" d="M249.1 22v32.7H240l-12.4-14.8v14.8h-10.7V22h9.1l12.4 14.8V22h10.7z"/><linearGradient id="g" x1="302.15" x2="198.812" y1="-50.054" y2="128.931" gradientUnits="userSpaceOnUse"><stop offset="0" style="stop-color:#474596"/><stop offset=".17" style="stop-color:#464494"/><stop offset=".761" style="stop-color:#2b2a69"/></linearGradient><path fill="url(#g)" d="M253.1 38.3c0-9.9 7.8-17.1 18.4-17.1 10.6 0 18.4 7.2 18.4 17.1s-7.8 17.1-18.4 17.1c-10.6 0-18.4-7.2-18.4-17.1zm25.8 0c0-5.1-3.3-8.2-7.3-8.2-4.1 0-7.3 3.1-7.3 8.2s3.3 8.2 7.3 8.2 7.3-3.1 7.3-8.2z"/><linearGradient id="h" x1="302.15" x2="198.812" y1="-50.054" y2="128.931" gradientUnits="userSpaceOnUse"><stop offset="0" style="stop-color:#474596"/><stop offset=".17" style="stop-color:#464494"/><stop offset=".761" style="stop-color:#2b2a69"/></linearGradient><path fill="url(#h)" d="M300.6 30.5H291V22h30.2v8.5h-9.6v24.1h-11V30.5z"/><linearGradient id="i" x1="302.15" x2="198.812" y1="-50.054" y2="128.931" gradientUnits="userSpaceOnUse"><stop offset="0" style="stop-color:#474596"/><stop offset=".17" style="stop-color:#464494"/><stop offset=".761" style="stop-color:#2b2a69"/></linearGradient><path fill="url(#i)" d="M344.7 49h-12.4l-2.2 5.7h-11.2L333.2 22H344l14.3 32.7h-11.4l-2.2-5.7zm-3-8-3.2-8.2-3.2 8.2h6.4z"/><linearGradient id="j" x1="302.15" x2="198.812" y1="-50.054" y2="128.931" gradientUnits="userSpaceOnUse"><stop offset="0" style="stop-color:#474596"/><stop offset=".17" style="stop-color:#464494"/><stop offset=".761" style="stop-color:#2b2a69"/></linearGradient><path fill="url(#j)" d="m389.2 54.7-.1-14.9-7.1 11.9h-4.9L370 40.3v14.4h-10V22h9.1l10.6 17.4L390.1 22h9.1l.1 32.7h-10.1z"/><linearGradient id="k" x1="302.15" x2="198.812" y1="-50.054" y2="128.931" gradientUnits="userSpaceOnUse"><stop offset="0" style="stop-color:#474596"/><stop offset=".17" style="stop-color:#464494"/><stop offset=".761" style="stop-color:#2b2a69"/></linearGradient><path fill="url(#k)" d="m402.5 52.1 3.5-8c3.1 1.8 7.2 3 10.8 3 3.1 0 4.2-.7 4.2-1.8 0-4.1-18.1-.8-18.1-13 0-6.1 5.1-11 15.2-11 4.4 0 8.9.9 12.3 2.8l-3.3 8c-3.2-1.6-6.3-2.4-9.1-2.4-3.2 0-4.2.9-4.2 2.1 0 3.9 18.1.7 18.1 12.7 0 6-5.1 11-15.2 11-5.4-.1-10.9-1.4-14.2-3.4z"/></svg>